<svg xmlns="http://www.w3.org/2000/svg" width="648.47" height="72.844" viewBox="0 0 648.47 72.844"><g transform="translate(-410.954 -534.504)"><path d="M145.145,67.474c-.216-3.606-.7-6.7-.717-6.831L143.857,57l-3.44,1.327c-.123.047-3.043,1.178-6.274,2.794-6.346,3.174-8.1,5.3-8.862,6.628a10.726,10.726,0,0,0,1.158,12.35,25.183,25.183,0,0,1-14.49,7.146l-.148.02V64.59a24.969,24.969,0,0,0,14.074-9.536,11.566,11.566,0,0,0,13.182-5.35c1.731-3,1.635-8.3,1.412-12.032-.239-3.994-.771-7.42-.794-7.564l-.571-3.642-3.44,1.327c-.136.052-3.369,1.3-6.947,3.094-3.341,1.671-7.983,4.24-9.715,7.239a11.6,11.6,0,0,0,1.733,13.865,19.025,19.025,0,0,1-8.935,6.4V34.316a12.654,12.654,0,0,0,9.658-12.276c0-1.046,0-4.227-5.321-12.29-2.465-3.735-4.895-6.753-5-6.88L108.825,0,106.51,2.869c-.1.127-2.532,3.146-5,6.88-5.321,8.063-5.321,11.245-5.321,12.29a12.654,12.654,0,0,0,9.658,12.276V58.387a19.025,19.025,0,0,1-8.935-6.4,11.6,11.6,0,0,0,1.733-13.865c-1.731-3-6.373-5.567-9.715-7.239-3.578-1.79-6.812-3.042-6.948-3.094l-3.44-1.327-.571,3.642c-.022.144-.555,3.57-.794,7.564C76.959,41.4,76.863,46.7,78.594,49.7a11.619,11.619,0,0,0,10.035,5.791h0a11.525,11.525,0,0,0,3.147-.441A24.97,24.97,0,0,0,105.85,64.59V87.266l-.148-.02A25.183,25.183,0,0,1,91.213,80.1,10.726,10.726,0,0,0,92.37,67.75c-.765-1.325-2.516-3.454-8.862-6.628-3.231-1.616-6.151-2.747-6.274-2.794L73.794,57l-.571,3.642c-.02.13-.5,3.225-.717,6.831-.424,7.083.544,9.664,1.309,10.989A10.75,10.75,0,0,0,83.1,83.82h0a10.675,10.675,0,0,0,3.013-.436,31.107,31.107,0,0,0,18.8,9.761l.94.126v32.971H111.8V93.271l.939-.126a31.107,31.107,0,0,0,18.8-9.761,10.7,10.7,0,0,0,12.3-4.921c.765-1.325,1.733-3.906,1.31-10.989Z" transform="translate(410.954 679.752) rotate(-90)" fill="#94de1d"/><rect width="25" height="6" rx="3" transform="translate(582 568)" fill="#94de1d"/><rect width="25" height="6" rx="3" transform="translate(649 568)" fill="#94de1d"/><rect width="25" height="6" rx="3" transform="translate(729 568)" fill="#94de1d"/><path d="M25.2.84A26.219,26.219,0,0,1,15.96-.75,21.354,21.354,0,0,1,8.61-5.28a21.1,21.1,0,0,1-4.83-6.93A21.755,21.755,0,0,1,2.04-21a21.755,21.755,0,0,1,1.74-8.79,20.89,20.89,0,0,1,4.86-6.93,21.618,21.618,0,0,1,7.41-4.53,26.823,26.823,0,0,1,9.39-1.59,27.028,27.028,0,0,1,10.62,1.98,19.853,19.853,0,0,1,7.74,5.7l-7.56,6.84a15.1,15.1,0,0,0-4.65-3.51A12.89,12.89,0,0,0,26.04-33a13.8,13.8,0,0,0-4.92.84,10.342,10.342,0,0,0-3.78,2.43,11.269,11.269,0,0,0-2.43,3.78A13.315,13.315,0,0,0,14.04-21a13.207,13.207,0,0,0,.87,4.86,11.2,11.2,0,0,0,2.43,3.81,10.73,10.73,0,0,0,3.75,2.46A12.972,12.972,0,0,0,25.92-9a15.706,15.706,0,0,0,5.16-.87,16.939,16.939,0,0,0,5.1-2.97L42.84-4.5A27.27,27.27,0,0,1,34.5-.54,33.171,33.171,0,0,1,25.2.84Zm7.14-6.9V-21.9h10.5V-4.5ZM74.4,0V-42H93.6a24.24,24.24,0,0,1,9.93,1.86,14.519,14.519,0,0,1,6.45,5.37,14.915,14.915,0,0,1,2.28,8.31,14.513,14.513,0,0,1-2.28,8.19,14.473,14.473,0,0,1-6.45,5.28,24.588,24.588,0,0,1-9.93,1.83H81l5.28-4.98V0Zm25.98,0L89.94-15.3H102.6L113.1,0ZM86.28-14.88,81-20.34H92.88q3.72,0,5.55-1.62a5.7,5.7,0,0,0,1.83-4.5,5.771,5.771,0,0,0-1.83-4.56q-1.83-1.62-5.55-1.62H81l5.28-5.46ZM163.98.84a25.957,25.957,0,0,1-9.3-1.62,22.144,22.144,0,0,1-7.41-4.59,21.093,21.093,0,0,1-4.89-6.93,21.391,21.391,0,0,1-1.74-8.7,21.391,21.391,0,0,1,1.74-8.7,21.093,21.093,0,0,1,4.89-6.93,22.144,22.144,0,0,1,7.41-4.59,25.957,25.957,0,0,1,9.3-1.62,25.89,25.89,0,0,1,9.33,1.62,21.878,21.878,0,0,1,7.35,4.59,21.7,21.7,0,0,1,4.89,6.93,21.078,21.078,0,0,1,1.77,8.7,21.287,21.287,0,0,1-1.77,8.73,21.267,21.267,0,0,1-4.89,6.93,22.125,22.125,0,0,1-7.35,4.56A25.89,25.89,0,0,1,163.98.84Zm0-9.84a11.774,11.774,0,0,0,4.47-.84,10.326,10.326,0,0,0,3.6-2.43,11.445,11.445,0,0,0,2.4-3.81,13.378,13.378,0,0,0,.87-4.92,13.315,13.315,0,0,0-.87-4.95,11.513,11.513,0,0,0-2.4-3.78,10.327,10.327,0,0,0-3.6-2.43,11.775,11.775,0,0,0-4.47-.84,11.774,11.774,0,0,0-4.47.84,10.326,10.326,0,0,0-3.6,2.43,11.513,11.513,0,0,0-2.4,3.78,13.315,13.315,0,0,0-.87,4.95,13.378,13.378,0,0,0,.87,4.92,11.444,11.444,0,0,0,2.4,3.81,10.326,10.326,0,0,0,3.6,2.43A11.774,11.774,0,0,0,163.98-9ZM226.5,0,212.88-42h12.24L236.58-5.64H230.4L242.46-42h10.92l11.4,36.36h-5.94L270.66-42H282L268.38,0H255.66l-9.72-30.9h3.42L239.22,0Z" transform="translate(527.004 591)" fill="#fff"/><path d="M15.36,0V-39.24H.24V-42h33.3v2.76H18.42V0ZM65.1,0V-42H80.16a22.2,22.2,0,0,1,9.06,1.68,13.026,13.026,0,0,1,5.82,4.83,13.774,13.774,0,0,1,2.04,7.65,13.549,13.549,0,0,1-2.04,7.53,13.214,13.214,0,0,1-5.82,4.86,21.863,21.863,0,0,1-9.06,1.71H66.78l1.38-1.44V0ZM94.26,0,83.34-15.24h3.48L97.74,0ZM68.16-15l-1.38-1.44H80.16q6.78,0,10.29-3a10.453,10.453,0,0,0,3.51-8.4q0-5.46-3.51-8.43T80.16-39.24H66.78l1.38-1.5ZM135-22.68h22.74v2.7H135Zm.36,19.92h25.92V0H132.3V-42h28.08v2.76H135.36Zm63.78-19.92h22.74v2.7H199.14Zm.36,19.92h25.92V0H196.44V-42h28.08v2.76H199.5Z" transform="translate(834.004 591)" fill="#aeb4a6"/></g></svg>